<svg width="512" height="512" viewBox="0 0 512 512" fill="none" xmlns="http://www.w3.org/2000/svg">
  <rect width="512" height="512" fill="#1F2937"/>
  <path d="M256 128C185.307 128 128 185.307 128 256C128 326.693 185.307 384 256 384C326.693 384 384 326.693 384 256C384 185.307 326.693 128 256 128ZM256 352C203.065 352 160 308.935 160 256C160 203.065 203.065 160 256 160C308.935 160 352 203.065 352 256C352 308.935 308.935 352 256 352Z" fill="#3B82F6"/>
  <path d="M256 192C220.654 192 192 220.654 192 256C192 291.346 220.654 320 256 320C291.346 320 320 291.346 320 256C320 220.654 291.346 192 256 192ZM256 288C238.327 288 224 273.673 224 256C224 238.327 238.327 224 256 224C273.673 224 288 238.327 288 256C288 273.673 273.673 288 256 288Z" fill="#3B82F6"/>
  <path d="M256 240C247.163 240 240 247.163 240 256C240 264.837 247.163 272 256 272C264.837 272 272 264.837 272 256C272 247.163 264.837 240 256 240Z" fill="#3B82F6"/>
  <path d="M416 240H384V272H416V240Z" fill="#3B82F6"/>
  <path d="M128 240H96V272H128V240Z" fill="#3B82F6"/>
  <path d="M272 128V96H240V128H272Z" fill="#3B82F6"/>
  <path d="M272 416V384H240V416H272Z" fill="#3B82F6"/>
  <path d="M368.971 176.971L391.598 154.343L369.657 132.402L347.029 155.029L368.971 176.971Z" fill="#3B82F6"/>
  <path d="M143.029 335.029L120.402 357.657L142.343 379.598L164.971 356.971L143.029 335.029Z" fill="#3B82F6"/>
  <path d="M347.029 356.971L369.657 379.598L391.598 357.657L368.971 335.029L347.029 356.971Z" fill="#3B82F6"/>
  <path d="M164.971 155.029L142.343 132.402L120.402 154.343L143.029 176.971L164.971 155.029Z" fill="#3B82F6"/>
</svg>